<svg width="799.76" height="799.91" version="1.1" viewBox="0 0 799.76 799.91" xmlns="http://www.w3.org/2000/svg">
 <defs>
  <clipPath id="clipPath18">
   <path d="M 0,599.934 H 599.823 V 0 H 0 Z"/>
  </clipPath>
 </defs>
 <g transform="matrix(1.3333 0 0 -1.3333 0 799.91)">
  <g clip-path="url(#clipPath18)">
   <g transform="translate(362.43 173.52)">
    <path d="m0 0c2.55-0.952 4.622-1.115 6.168-0.48 1.766 0.724 3.002 2.481 3.527 3.352l46.721 235.56c-2.123-0.298-4.95-1.09-6.799-1.902-0.128-0.056-0.258-0.111-0.389-0.162l-267.67-105c-0.144-0.056-0.289-0.109-0.435-0.16-1.253-0.448-2.766-1.253-3.822-1.989 0.908-0.792 2.358-1.692 3.615-2.183l67.158-22.609c0.416-0.14 0.823-0.307 1.218-0.497l40-19.332c0.643-0.312 1.253-0.687 1.82-1.121zm4.097-21.848c-3.896 0-8.448 0.802-13.57 3.036-0.779 0.341-1.514 0.774-2.189 1.291l-109.15 83.681-38.439 18.577-66.708 22.458c-0.053 0.018-0.107 0.036-0.16 0.056-1.683 0.597-16.489 6.236-18.242 20.259-1.507 12.057 8.942 20.161 18.448 23.488l267.29 104.85c4.377 1.893 18.331 7.014 28.324 0.49 3.059-1.997 8.192-6.8 8.192-16.528 0-0.686-0.068-1.37-0.201-2.043l-47.667-240.33c-0.126-0.635-0.31-1.256-0.55-1.857-0.451-1.126-4.708-11.126-15.336-15.487-2.547-1.046-5.93-1.94-10.043-1.94"/>
   </g>
   <g transform="translate(289.33 216.33)">
    <path d="m0 0-43.51-39.67c0-1.284-7.122-1.284-7.122 0l8.331 72.723 0.458 1.283s122 109.66 127 114.33 3.333 5.667 3.333 5.667c0.333 5.666-9 0-9 0l-161.67-102.67s20.334-66.666 24.334-79.332c4-12.668 6.355-12.438 7.211-12.438"/>
   </g>
   <g transform="translate(219.53 263.41)">
    <path d="m0 0c3.069-10.053 8.641-28.293 13.488-44.1l3.581 31.259c0.091 0.795 0.273 1.577 0.541 2.331l0.458 1.283c0.586 1.644 1.573 3.117 2.87 4.283 18.76 16.862 45.163 40.603 69.037 62.083zm22.73-98.222c-1.943 0-3.637 0.221-5.109 0.609-8.995 0.953-12.807 10.612-15.676 19.699-3.969 12.57-23.533 76.706-24.364 79.43-1.377 4.516 0.429 9.396 4.415 11.926l161.67 102.67c0.059 0.038 0.119 0.076 0.18 0.112 5.158 3.132 12.643 6.06 19.003 2.229 3.149-1.896 5.192-5.033 5.779-8.713 0.175-0.62 0.3-1.258 0.369-1.908 0.64-6.061-3.336-10.626-6.871-13.926-4.664-4.354-106.33-95.757-124.53-112.12l-5.633-49.171 30.769 28.054c4.285 3.908 10.927 3.6 14.834-0.685 3.906-4.285 3.6-10.926-0.685-14.833l-42.626-38.864c-2.088-2.513-5.676-4.51-11.52-4.51"/>
   </g>
   <g transform="translate(289.33 205.83)">
    <path d="m0 0c-2.261 0-4.538 0.727-6.458 2.227l-42.3 33.052c-4.57 3.571-5.38 10.169-1.809 14.739 3.57 4.568 10.169 5.378 14.738 1.808l42.301-33.053c4.57-3.57 5.38-10.169 1.809-14.738-2.071-2.649-5.16-4.035-8.281-4.035"/>
   </g>
   <path d="m299.92 561.12a261.14 261.14 0 0 1-261.14-261.14 261.14 261.14 0 0 1 261.14-261.14 261.14 261.14 0 0 1 261.14 261.14 261.14 261.14 0 0 1-261.14 261.14zm0-35.811a225.33 225.33 0 0 0 225.33-225.33 225.33 225.33 0 0 0-225.33-225.33 225.33 225.33 0 0 0-225.34 225.33 225.33 225.33 0 0 0 225.34 225.33z" stroke-width="4.339"/>
  </g>
 </g>
</svg>
